HIERARCHY
ROOT Hips
{
	OFFSET 0.00000 0.00000 0.00000
	CHANNELS 6 Xposition Yposition Zposition Zrotation Yrotation Xrotation 
	JOINT LHipJoint
	{
		OFFSET 0 0 0
		CHANNELS 3 Zrotation Yrotation Xrotation
		JOINT LeftHip
		{
			OFFSET 1.49846 -1.74315 1.08250
			CHANNELS 3 Zrotation Yrotation Xrotation
			JOINT LeftKnee
			{
				OFFSET 2.40966 -6.62050 0.00000
				CHANNELS 3 Zrotation Yrotation Xrotation
				JOINT LeftAnkle
				{
					OFFSET 2.68066 -7.36505 0.00000
					CHANNELS 3 Zrotation Yrotation Xrotation
					JOINT LeftToe
					{
						OFFSET 0.14291 -0.39265 2.35870
						CHANNELS 3 Zrotation Yrotation Xrotation
						End Site
						{
							OFFSET 0.00000 -0.00000 1.20470
						}
					}
				}
			}
		}
	}
	JOINT RHipJoint
	{
		OFFSET 0 0 0
		CHANNELS 3 Zrotation Yrotation Xrotation
		JOINT RightHip
		{
			OFFSET -1.46318 -1.74316 1.08250
			CHANNELS 3 Zrotation Yrotation Xrotation
			JOINT RightKnee
			{
				OFFSET -2.39759 -6.58734 0.00000
				CHANNELS 3 Zrotation Yrotation Xrotation
				JOINT RightAnkle
				{
					OFFSET -2.63570 -7.24154 0.00000
					CHANNELS 3 Zrotation Yrotation Xrotation
					JOINT RightToe
					{
						OFFSET -0.17578 -0.48294 2.47180
						CHANNELS 3 Zrotation Yrotation Xrotation
						End Site
						{
							OFFSET -0.00000 -0.00000 1.26600
						}
					}
				}
			}
		}
	}
	JOINT lowerback
	{
		OFFSET 0 0 0
		CHANNELS 3 Zrotation Yrotation Xrotation
		JOINT Chest
		{
			OFFSET 0.00843 2.19877 -0.20423
			CHANNELS 3 Zrotation Yrotation Xrotation
			JOINT Chest2
			{
				OFFSET -0.03080 2.21436 -0.05138
				CHANNELS 3 Zrotation Yrotation Xrotation
				JOINT lowerneck
				{
					OFFSET 0 0 0
					CHANNELS 3 Zrotation Yrotation Xrotation
					JOINT Neck
					{
						OFFSET -0.04063 1.58841 0.30440
						CHANNELS 3 Zrotation Yrotation Xrotation
						JOINT Head
						{
							OFFSET 0.09277 1.59484 -0.39337
							CHANNELS 3 Zrotation Yrotation Xrotation
							End Site
							{
								OFFSET 0.03488 1.66530 -0.17040
							}
						}
					}
				}
				JOINT LeftCollar
				{
					OFFSET 0 0 0
					CHANNELS 3 Zrotation Yrotation Xrotation
					JOINT LeftShoulder
					{
						OFFSET 3.03849 1.31522 0.02556
CHANNELS 3 Zrotation Xrotation Yrotation
						JOINT LeftElbow
						{
OFFSET 0 -5.255370 0.000000
CHANNELS 3 Zrotation Xrotation Yrotation
							JOINT LeftWrist
							{
OFFSET 0 -3.388550 -0.000000
CHANNELS 3 Zrotation Xrotation Yrotation
								JOINT lhand
								{
									OFFSET 0 0 0
CHANNELS 3 Zrotation Xrotation Yrotation
									JOINT LFingers
									{
OFFSET 0 -0.614520 0.000000
CHANNELS 3 Zrotation Xrotation Yrotation
										End Site
										{
OFFSET 0 -0.495440 0.000000
										}
									}
								}
								JOINT LThumb
								{
OFFSET 0 0.000000 0.000000
CHANNELS 3 Zrotation Xrotation Yrotation
									End Site
									{
OFFSET 0 -0.503000 0.503000
									}
								}
							}
						}
					}
				}
				JOINT RightCollar
				{
					OFFSET 0 0 0
					CHANNELS 3 Zrotation Yrotation Xrotation
					JOINT RightShoulder
					{
						OFFSET -3.06926 1.12091 -0.13185
CHANNELS 3 Zrotation Xrotation Yrotation
						JOINT RightElbow
						{
OFFSET 0 -5.381830 0.000000
CHANNELS 3 Zrotation Xrotation Yrotation
							JOINT RightWrist
							{
OFFSET 0 -3.169880 0.000000
CHANNELS 3 Zrotation Xrotation Yrotation
								JOINT rhand
								{
									OFFSET 0 0 0
CHANNELS 3 Zrotation Xrotation Yrotation
									JOINT RFingers
									{
OFFSET 0 -0.637680 0.000000
CHANNELS 3 Zrotation Xrotation Yrotation
										End Site
										{
OFFSET 0 -0.514110 0.000000
										}
									}
								}
								JOINT RThumb
								{
OFFSET 0 0.000000 0.000000
CHANNELS 3 Zrotation Xrotation Yrotation
									End Site
									{
OFFSET 0 -0.521960 0.521960
									}
								}
							}
						}
					}
				}
			}
		}
	}
}
MOTION
Frames: 9
Frame Time: 0.008333333333333333
3.356000 17.526400 -32.326900 0.947300 1.146100 7.550700 0.000000 0.000000 0.000000 -15.141400 -23.447400 -5.035800 1.973100 8.809800 25.202100 0.149900 17.916300 -26.618600 0.012100 0.710900 1.953600 0.000000 0.000000 0.000000 19.343000 29.063900 -2.427400 -2.479000 -9.799700 28.330400 -3.122600 -20.419800 -45.069900 -0.551400 -4.757000 13.216600 -0.221700 -0.406600 -4.483800 -1.854700 -0.441700 2.398300 -1.835800 -0.192900 4.985500 -8.772800 -5.897900 -22.310300 10.057300 -8.213000 24.409500 3.873500 -3.168700 12.643800 -0.000000 -0.000000 0.000000 70.924200 12.408900 1.682000 10.683600 -17.801700 1.677900 7.776000 8.522700 -4.276600 0.000000 0.000000 0.000000 -7.125000 0.000000 0.000000 -15.399100 33.973100 -4.297500 -0.000000 -0.000000 0.000000 -72.497800 6.686800 6.892800 -11.996100 -19.798800 -2.101000 -5.674500 -17.866200 -3.900700 0.000000 0.000000 0.000000 7.125000 0.000000 -0.000000 15.729500 25.992400 7.514900
3.339393 17.524659 -32.311552 0.945813 1.156547 7.748921 0.000000 0.000000 0.000000 -15.060916 -23.767597 -5.076843 1.972847 8.809194 25.200230 0.150876 18.095899 -26.862916 0.014741 0.784666 2.156604 0.000000 0.000000 0.000000 19.337780 29.143269 -2.605138 -2.494465 -9.827842 28.421045 -3.258029 -20.089824 -45.358296 -0.580936 -4.880538 13.568232 -0.200417 -0.419418 -4.559068 -1.826994 -0.460823 2.383840 -1.821406 -0.202065 5.012695 -8.879453 -5.946885 -22.128872 9.962134 -8.230949 24.423848 3.853092 -3.204428 12.614847 0.000000 0.000000 0.000000 71.124684 12.087883 1.766496 10.808187 -17.993631 1.716213 9.126285 8.882166 -4.274354 0.000000 0.000000 0.000000 -7.125000 0.000000 0.000000 -14.318971 34.031098 -3.957966 0.000000 0.000000 0.000000 -72.527229 6.566733 6.677171 -12.007465 -19.815871 -2.104871 -5.951868 -17.841257 -3.998862 0.000000 0.000000 0.000000 7.125000 0.000000 0.000000 15.513114 25.897820 7.439687
3.326940 17.524006 -32.297564 0.988480 1.144093 7.931503 0.000000 0.000000 0.000000 -15.056076 -24.067053 -5.075640 1.965634 8.794186 25.153682 0.135140 18.327581 -27.043726 0.015194 0.796383 2.188584 0.000000 0.000000 0.000000 19.258369 29.224741 -2.794263 -2.508848 -9.854025 28.505400 -3.329560 -19.942743 -45.531750 -0.588194 -4.910371 13.653024 -0.205442 -0.419007 -4.590520 -1.808814 -0.460520 2.371240 -1.799949 -0.202442 5.017555 -8.973459 -5.864975 -22.155066 9.999129 -8.091456 24.470127 3.910871 -3.145653 12.628576 0.000000 0.000000 0.000000 71.213872 11.758802 1.904884 10.952385 -18.215199 1.761011 10.322836 9.206289 -4.132553 0.000000 0.000000 0.000000 -7.125000 0.000000 0.000000 -13.334324 33.943304 -3.701606 0.000000 0.000000 0.000000 -72.521749 6.509310 6.545177 -12.030891 -19.850986 -2.112760 -6.375913 -17.746208 -4.015728 0.000000 0.000000 0.000000 7.125000 0.000000 0.000000 15.198894 25.881701 7.284200
3.318340 17.524582 -32.285928 0.984959 1.144274 8.104217 0.000000 0.000000 0.000000 -14.986950 -24.263994 -5.108518 1.954563 8.770743 25.080883 0.137013 18.425952 -27.188984 0.016830 0.837800 2.302720 0.000000 0.000000 0.000000 19.210663 29.282563 -2.989614 -2.515477 -9.865931 28.543740 -3.298714 -20.057980 -45.496101 -0.572680 -4.846398 13.470978 -0.153281 -0.434129 -4.450676 -1.756471 -0.489871 2.280682 -1.774528 -0.217347 4.842497 -8.912260 -5.760596 -22.416187 9.795016 -7.898345 24.685563 3.859988 -3.070996 12.730013 0.000000 0.000000 0.000000 71.238676 11.606438 1.837297 11.125875 -18.480916 1.815625 10.951326 9.338484 -4.253882 0.000000 0.000000 0.000000 -7.125000 0.000000 0.000000 -12.848965 34.090354 -3.513895 0.000000 0.000000 0.000000 -72.575359 6.459145 6.515470 -12.053797 -19.885245 -2.120560 -6.399187 -17.626735 -3.949995 0.000000 0.000000 0.000000 7.125000 0.000000 0.000000 15.189936 25.945546 7.255998
3.311664 17.525088 -32.272397 0.997368 1.109892 8.272476 0.000000 0.000000 0.000000 -14.950651 -24.419770 -5.115970 1.938567 8.736993 24.976062 0.141564 18.515863 -27.343393 0.020053 0.913695 2.511330 0.000000 0.000000 0.000000 19.142911 29.369711 -3.171566 -2.523955 -9.881356 28.593439 -3.277036 -20.149840 -45.479479 -0.560691 -4.796145 13.328020 -0.109970 -0.427217 -4.306589 -1.729296 -0.487712 2.189925 -1.767717 -0.216612 4.665774 -8.840908 -5.651559 -22.571208 9.662179 -7.726920 24.837019 3.830727 -2.999881 12.791447 0.000000 0.000000 0.000000 71.337608 11.455102 1.677323 11.255711 -18.679114 1.857005 11.195393 9.398667 -3.963037 0.000000 0.000000 0.000000 -7.125000 0.000000 0.000000 -12.605360 33.811739 -3.531652 0.000000 0.000000 0.000000 -72.611631 6.477122 6.686407 -12.078753 -19.922674 -2.129073 -6.215588 -17.720730 -3.947322 0.000000 0.000000 0.000000 7.125000 0.000000 0.000000 15.325473 25.948102 7.324422
3.305611 17.525471 -32.255049 1.008294 1.057274 8.436112 0.000000 0.000000 0.000000 -14.939979 -24.624950 -5.048940 1.917112 8.691305 24.834255 0.131188 18.701835 -27.509148 0.020983 0.934564 2.568742 0.000000 0.000000 0.000000 19.077691 29.463772 -3.348242 -2.531389 -9.894772 28.636759 -3.183503 -20.505317 -45.379570 -0.514731 -4.598382 12.766458 -0.051939 -0.424806 -4.246163 -1.701735 -0.489943 2.187318 -1.771225 -0.216519 4.628367 -8.786355 -5.553193 -22.938244 9.564601 -7.567714 25.097726 3.817584 -2.924542 12.944482 0.000000 0.000000 0.000000 71.361320 11.290699 1.793234 11.328852 -18.790602 1.880482 11.131669 9.593584 -3.887640 0.000000 0.000000 0.000000 -7.125000 0.000000 0.000000 -12.644404 33.734222 -3.567403 0.000000 0.000000 0.000000 -72.661015 6.426591 6.866752 -12.081901 -19.927352 -2.130134 -6.172323 -17.841654 -3.875910 0.000000 0.000000 0.000000 7.125000 0.000000 0.000000 15.366133 26.017284 7.319399
3.300228 17.526912 -32.235689 1.014499 0.959801 8.608248 0.000000 0.000000 0.000000 -14.925556 -24.840364 -4.948139 1.887345 8.627282 24.636274 0.132753 18.871503 -27.746569 0.025977 1.039993 2.858911 0.000000 0.000000 0.000000 18.888855 29.192594 -3.735975 -2.530845 -9.893756 28.633272 -2.926977 -21.003273 -44.742761 -0.428439 -4.200488 11.641386 0.045861 -0.431180 -4.070333 -1.663460 -0.509277 2.078156 -1.784715 -0.225418 4.413713 -8.778505 -5.428480 -23.146528 9.452664 -7.370940 25.472636 3.818937 -2.843745 13.110078 0.000000 0.000000 0.000000 71.294960 11.329945 1.859212 11.420119 -18.929391 1.910008 11.137124 9.618886 -3.751468 0.000000 0.000000 0.000000 -7.125000 0.000000 0.000000 -12.618512 33.598992 -3.602075 0.000000 0.000000 0.000000 -72.765431 6.374089 7.062368 -12.097867 -19.951167 -2.135516 -5.908742 -17.871585 -3.865737 0.000000 0.000000 0.000000 7.125000 0.000000 0.000000 15.561619 26.026733 7.415795
3.291202 17.530466 -32.215682 0.984923 0.789148 8.795429 0.000000 0.000000 0.000000 -14.831551 -24.875364 -4.900818 1.850475 8.547458 24.389602 0.129227 18.988216 -27.874563 0.026234 1.045829 2.874857 0.000000 0.000000 0.000000 18.259947 27.016421 -5.051691 -2.521227 -9.876343 28.577211 -2.455269 -20.397171 -42.262101 -0.319351 -3.631990 10.043581 0.172824 -0.388761 -3.912825 -1.621395 -0.463429 2.059029 -1.806980 -0.200291 4.305149 -8.742272 -5.348534 -23.384049 9.350472 -7.235594 25.693799 3.803118 -2.786427 13.226537 0.000000 0.000000 0.000000 71.128503 11.319124 2.083343 11.526299 -19.090481 1.944550 11.231935 9.730711 -3.657236 0.000000 0.000000 0.000000 -7.125000 0.000000 0.000000 -12.527479 33.509043 -3.603005 0.000000 0.000000 0.000000 -72.809798 6.362777 6.936623 -12.138728 -20.012342 -2.149552 -5.578504 -17.696890 -3.730296 0.000000 0.000000 0.000000 7.125000 0.000000 0.000000 15.822077 26.156890 7.498973
3.274898 17.534090 -32.191026 0.986340 0.605641 8.945197 0.000000 0.000000 0.000000 -14.688511 -24.387224 -4.986540 1.804544 8.446402 24.078479 0.119221 18.832618 -27.590989 0.017584 0.855900 2.352471 0.000000 0.000000 0.000000 17.732611 24.853086 -6.264038 -2.517417 -9.869457 28.555071 -2.055341 -19.720150 -39.865321 -0.215190 -2.985900 8.239647 0.274336 -0.349844 -3.623535 -1.607918 -0.419241 2.085601 -1.843870 -0.176419 4.169600 -8.699385 -5.300605 -23.554232 9.285448 -7.149343 25.717815 3.785930 -2.748122 13.255956 0.000000 0.000000 0.000000 71.007857 11.436365 2.057121 11.653276 -19.282556 1.986274 11.238388 9.805735 -3.605316 0.000000 0.000000 0.000000 -7.125000 0.000000 0.000000 -12.514256 33.457633 -3.614962 0.000000 0.000000 0.000000 -72.768844 6.377275 6.683333 -12.209738 -20.118442 -2.173925 -5.379054 -17.396501 -3.704658 0.000000 0.000000 0.000000 7.125000 0.000000 0.000000 15.972280 26.181031 7.566237
